<svg width="28" height="28" viewBox="0 0 28 28" fill="none" xmlns="http://www.w3.org/2000/svg">
<g id="medium-svgrepo-com (1) 1">
<path id="Vector" d="M15.1667 14C15.1667 17.866 12.0327 21 8.16675 21C4.30075 21 1.16675 17.866 1.16675 14C1.16675 10.134 4.30075 7 8.16675 7C12.0327 7 15.1667 10.134 15.1667 14Z" fill="#DEDEDE"/>
<path id="Vector_2" d="M26.8333 14C26.8333 17.2216 26.311 19.8333 25.6667 19.8333C25.0223 19.8333 24.5 17.2216 24.5 14C24.5 10.7783 25.0223 8.16663 25.6667 8.16663C26.311 8.16663 26.8333 10.7783 26.8333 14Z" fill="#DEDEDE"/>
<path id="Vector_3" d="M19.8333 21C21.7663 21 23.3333 17.866 23.3333 14C23.3333 10.134 21.7663 7 19.8333 7C17.9002 7 16.3333 10.134 16.3333 14C16.3333 17.866 17.9002 21 19.8333 21Z" fill="#DEDEDE"/>
</g>
</svg>
